<?xml version="1.0" encoding="utf-8"?>
<!-- Generator: Adobe Illustrator 18.0.0, SVG Export Plug-In . SVG Version: 6.00 Build 0)  -->
<!DOCTYPE svg PUBLIC "-//W3C//DTD SVG 1.1//EN" "http://www.w3.org/Graphics/SVG/1.1/DTD/svg11.dtd">
<svg version="1.1" id="Layer_3" xmlns="http://www.w3.org/2000/svg" xmlns:xlink="http://www.w3.org/1999/xlink" x="0px" y="0px"
	 viewBox="0 0 1024 1024" enable-background="new 0 0 1024 1024" xml:space="preserve">
<path fill="#0000FF" d="M580.1986,263.3182C582,237,556,192,576,189c27-5,45,38,70.6467,56.088
	c3.3031,2.3181,6.576,4.2232,9.9621,5.864c3.386,1.6338,6.8853,3.0031,10.5273,3.9967c3.0258,1.5603,5.9139,3.3185,8.624,5.281
	C686.6,268.08,694.6,279.2,697,294c1,7,2,14-3,20c-13.5,17-30.75,17.25-47.9889,10.9864c-3.4504-1.2527-6.9003-2.766-10.3294-4.465
	c-14.0113-8.6411-30.4516-16.4263-41.9951-28.8748c-1.9239-2.0747-3.7118-4.2796-5.3297-6.6418C586,280,583,276,581.8387,270.8465
	C581.2213,268.561,580.6764,266.0667,580.1986,263.3182z"/>
<path fill="#0000FF" d="M663.363,640.0549c-1.6361-3.0206-4.0649-4.0647-6.8556-4.2023c-0.9302-0.0459-1.9007,0.009-2.8954,0.1249
	C641,631,630,629,624.6346,644.6896c-0.5763,0.7347-1.0818,1.4763-1.4932,2.2681c-0.8226,1.5837-1.2686,3.3689-1.2305,5.3535
	c0.083,4.3305,1.235,7.5875,3.0944,9.934c0.6317,0.7845,1.3391,1.4673,2.1249,2.0633C636,668,646,675,655,670
	c4-2,1-9,4.4059-14.3168c0.558-0.7896,1.0721-1.6119,1.5369-2.4625c1.8589-3.4022,2.9268-7.2565,2.8398-11.2803
	C663.7094,641.2918,663.5725,640.6611,663.363,640.0549z"/>
<path fill="#0000FF" d="M706.6345,631.8954c-3.9879-2.2108-5.9179-5.28-6.5089-8.4639c0.0332-1.0094,0.1526-2.0457,0.4989-3.0435
	C707,615,714,606,720,611c4,4-3,14-8.5,18.0469c-0.5,0.4219-1,0.8906-1.5,1.3281c-1,0.875-2,1.625-3,1.625s-3-2-2-3
	c2-2,3-1,3.5415,1.0627C708.6105,630.7335,708.1278,631.4323,706.6345,631.8954z"/>
</svg>
