<?xml version="1.0" encoding="utf-8"?>
<!-- Generator: Adobe Illustrator 18.0.0, SVG Export Plug-In . SVG Version: 6.00 Build 0)  -->
<!DOCTYPE svg PUBLIC "-//W3C//DTD SVG 1.1//EN" "http://www.w3.org/Graphics/SVG/1.1/DTD/svg11.dtd">
<svg version="1.1" xmlns="http://www.w3.org/2000/svg" xmlns:xlink="http://www.w3.org/1999/xlink" x="0px" y="0px"
	 viewBox="190 0 899.9999 900" enable-background="new 190 0 899.9999 900" xml:space="preserve">
<g id="Layer_2_1_">
</g>
<g id="Layer_1">
	<path fill="#00FF00" d="M971.2,243c-35.5644,20.005-56.1976,69.5488-58.9824,108.2304
		c-3.1937,44.3625,20.1662,82.9506,0.4203,125.9968c-19.4955,42.5002,13.8615,20.5317,37.1746,6.3748
		c15.9601-9.6918,31.6611-19.88,48.0787-28.7964c31.0509-16.8636,59.1155-5.553,92.1089-8.5269c0-77.4031,0-154.8061,0-232.2093
		C1052.5109,236.1371,1006.6073,223.0834,971.2,243C942.4,259.2,995.6808,229.2295,971.2,243z"/>
	<path fill="#FF0000" d="M859.9782,274.5398c0-46.3913,112.6364-18.0349,81.0643,12.523
		c-13.0758,9.996-9.2272,41.9313-32.0692,29.7456C893.0397,308.3082,859.9782,296.8498,859.9782,274.5398z"/>
	<path fill="#FF0000" d="M925.6819,721.1044c-5.4731,12.5854-14.1867,36.5939,5.0181,42.9955
		c14.1556,0,29.2284-39.173,34.65-49.5281c5.301-10.1249,22.1071-30.879-1.05-34.7385
		C937.9392,675.4399,933.2613,703.3325,925.6819,721.1044C919.9,734.4,926.6208,718.9029,925.6819,721.1044z"/>
	<path fill="#FF0000" d="M1055.8243,59.3667c-8.4341,17.9009-42.4959-2.6245-45.0244-15.2667
		C1010.8,25.8832,1055.1407,44.8909,1055.8243,59.3667C1048.6,74.7,1055.6747,56.1973,1055.8243,59.3667z"/>
	<path fill="#FF0000" d="M1065.8347,460.9009c-8.6578-35.7024-60.0651-25.5601-75.6223-1.1134
		C983.059,471.0287,1064.7058,485.0945,1065.8347,460.9009C1062.1,445.5,1065.7223,463.3097,1065.8347,460.9009z"/>
	<path fill="#00FF00" d="M756.1462,689.039c-0.2287-2.3151-2.3596-3.951-4.6591-3.598
		C712.322,691.4533,579.7668,753.688,632.8,801.9c27.0484,22.5405-22.9024,60.5488-46.8,48.6
		c-25.7415-12.8707-3.9763-62.0242,11.6115-74.4789c19.6204-15.6767,29.6754-37.682,51.4519-55.8407
		c33.466-27.906,74.2894-36.6124,97.4464-72.3575c-33.5469-89.5042-100.2287-99.2774-171.9847-47.7479
		c-57.5065,41.2966-65.9863,89.1022-78.0164,154.6236c-7.437,40.5049-8.1377,81.4586-2.368,122.2484
		c4.4131,31.199,8.7292,23.053,36.5332,23.053c47.3865,0,94.7728,0,142.1592,0c8.0212,0,33.3745-83.3181,39.2549-96.3434
		c17.7722-39.3668,49.7067-80.9838,42.4481-126.1431C751.4409,677.6671,756.9712,697.3904,756.1462,689.039z"/>
	<path fill="#FF0000" d="M575.0417,820.7238c12.8198-42.2037,57.2374-88.7717,62.6542-16.8365
		C641.8455,858.993,561.6018,865.8002,575.0417,820.7238C582.4,796.5,574.1638,823.6686,575.0417,820.7238z"/>
	<path fill="#00FF00" d="M527.01,162.0771c-2.0708,12.5461-5.2075,24.8203-9.41,36.8229
		c43.8179,21.909,64.2648-48.3331,57.0366-74.6681C564.5932,87.6401,580.2468,20.6579,612.2075,0c-38.0031,0-76.006,0-114.009,0
		C495.2568,51.1986,542.347,114.1196,527.01,162.0771C523,173.7,527.6342,160.1253,527.01,162.0771z"/>
	<path fill="#00FF00" d="M679.6,261c5.0253-82.9157-86.8818-119.4844-137.1974-50.8151
		c-47.7243,50.3264-12.458,76.2181,36.2332,98.1728c18.8075,8.4802,37.8986,13.8979,45.7117,35.1688
		c9.4538,25.7375-22.2144,35.7498-19.6083,55.0109c0.0626,0.4623,91.4839-4.9111,95.3109-11.7474
		C715.5966,359.0189,677.6218,293.6406,679.6,261z"/>
	<path fill="#FF0000" d="M574.7692,142.9384c8.3192-37.6892,73.965-39.0502,63.7682,1.7366
		C629.8719,179.3371,562.1042,184.2512,574.7692,142.9384C579.7,120.6,573.98,145.513,574.7692,142.9384z"/>
	<path fill="#FF0000" d="M532.6137,236.7424c-17.8241,71.8977-71.3989,48.2433-76.0803-12.6104
		c-3.0212-39.2726,20.5732-39.0894,53.8666-34.4653C545.7881,194.5816,544.7483,201.0042,532.6137,236.7424
		C526.6,261,533.3472,234.5819,532.6137,236.7424z"/>
	<path d="M386.735,449.3173c6.8716,40.5055,79.9715,24.1223,106.0036,24.031c41.808,3.0879,70.9333,18.5997,112.9484,22.2757
		c49.351,4.3178,110.587,28.6854,160.7238,27.8036c42.897,1.8014,96.7523-3.6978,115.7882-57.3104
		c15.3214-43.1509-17.723-80.1806-57.7319-80.3828c-21.6946-0.1096-47.343,6.88-68.8759,8.3429
		c-32.3546,3.9863-64.1694,0.4662-96.1608,4.4877c-50.0079,6.2862-86.233-7.4308-145.7927,10.8862
		C496.3018,414.7827,387.9228,418.0006,386.735,449.3173C390.7705,473.1052,386.833,446.7321,386.735,449.3173z"/>
	<g id="Layer_2">
		<path fill="#FF0000" d="M219.7,74.7c-4.3196,6.4794-11.411,23.3241-6.3281,31.1344C217.8466,112.7101,255.7563,69.0968,219.7,74.7
			z"/>
		<path fill="#FF0000" stroke="#FF0000" stroke-width="14" stroke-miterlimit="10" d="M265.2501,634.1222
			c20.4292-10.331,37.1851-21.7709,60.7469-22.9489c5.269-0.2635,41.7902,10.6139,22.2901,20.4326
			c-19.1848,9.66-41.5889,7.2772-61.7189,19.1366C265.8642,662.9402,238.1509,647.8261,265.2501,634.1222z"/>
		<path fill="#FF0000" stroke="#FF0000" stroke-miterlimit="10" d="M374.1305,94.0955c7.5003-13.6722,19.9259-23.5056,34.079-29.6
			c14.9557,27.1381-5.8207,61.5834-36.8016,61.0141C367.1709,114.615,368.0784,104.1437,374.1305,94.0955
			C376.603,89.5883,368.8623,103.6986,374.1305,94.0955z"/>
		<path fill="#FF0000" stroke="#FF0000" stroke-miterlimit="10" d="M340.4046,264.2302c-0.0346,5.7068-0.0694,11.4137-0.104,17.1205
			c0.6369-0.9643,20.9165-45.8052,3.1948-32.2511"/>
		<path fill="#FF0000" stroke="#FF0000" stroke-miterlimit="10" d="M237.6411,379.3202
			C239.1152,448.6269,275.8232,376.2462,237.6411,379.3202C237.6195,378.3084,245.1936,378.7122,237.6411,379.3202z"/>
		<path fill="#FF0000" stroke="#FF0000" stroke-miterlimit="10" d="M359.7812,758.8901
			c-6.8637-10.2167-2.6302-24.4184,8.5214-29.379c18.5011-8.23,16.5925,17.9348,19.7283,29.5789
			C378.6143,759.0234,369.1978,758.9567,359.7812,758.8901C355.4537,752.4487,369.1978,758.9567,359.7812,758.8901z"/>
		<path fill="#FF0000" stroke="#FF0000" stroke-miterlimit="10" d="M843.2483,569.2064
			c-25.8563,3.0579-43.2832,29.5815-35.8264,54.5273C834.2307,621.866,839.8542,593.7527,843.2483,569.2064
			C830.95,570.6609,840.6254,588.1757,843.2483,569.2064z"/>
		<path fill="#FF0000" stroke="#FF0000" stroke-miterlimit="10" d="M774.4105,170.2169
			c14.2284-3.4704,49.3405,1.8307,38.4263,25.9587C799.8881,224.8014,771.2637,189.6667,774.4105,170.2169
			C783.7956,167.9277,772.6117,181.335,774.4105,170.2169z"/>
		<path fill="#FF0000" stroke="#FF0000" stroke-miterlimit="10" d="M737.2875,29.0687c-5.927-9.4268-32.884-6.6883-32.6164,7.2662
			C705.1575,61.7097,747.3996,45.1518,737.2875,29.0687z"/>
		<path fill="#FF0000" stroke="#FF0000" stroke-miterlimit="10" d="M795.28,345.4563c-6.676,1.173-13.3521,2.346-20.0281,3.519
			C779.5509,342.7831,789.1276,341.1004,795.28,345.4563z"/>
		<path fill="#FF0000" stroke="#FF0000" stroke-miterlimit="10" d="M915.9175,56.3511c0.0001-11.7917,16.8761-6.7442,5.3784-6.7545
			c-0.9044,4.0489-1.8086,8.0977-2.7128,12.1467"/>
		<path fill="#FF0000" stroke="#FF0000" stroke-miterlimit="10" d="M253.6004,813.1611c9.2238,9.179,3.152,23.4168-7.7827,25.5341
			c-1.1315-8.3363-2.263-16.6724-3.3945-25.0087C246.1488,813.5113,249.8747,813.3361,253.6004,813.1611
			C257.4677,817.0095,250.4504,810.5479,253.6004,813.1611z"/>
		<path fill="#FF0000" stroke="#FF0000" stroke-miterlimit="10" d="M318.6223,492.2076c-1.4999-3.3928-2.9999-6.7857-4.4998-10.1785
			c-6.499,2.5919-9.6908,7.3856-9.5755,14.3814C310.9869,498.8684,315.6786,497.4674,318.6223,492.2076
			C317.1223,488.8147,317.4019,493.561,318.6223,492.2076z"/>
		<path fill="#FF0000" stroke="#FF0000" stroke-miterlimit="10" d="M334.3523,350.5361c4.085-1.0854,8.17-2.1708,12.2551-3.2561
			C344.2933,355.031,340.2082,356.1163,334.3523,350.5361C338.4373,349.4508,335.6679,353.1794,334.3523,350.5361z"/>
		<path fill="#FF0000" stroke="#FF0000" stroke-miterlimit="10" d="M846.388,737.524c-1.1749-6.8594-2.35-13.7187-3.525-20.5781
			C854.8978,716.3159,857.9464,734.1125,846.388,737.524C845.2131,730.6646,851.2722,736.0824,846.388,737.524z"/>
		<path fill="#FF0000" stroke="#FF0000" stroke-miterlimit="10" d="M784.2736,283.3158
			c-21.9039,5.6402-24.3255-15.5318-3.5815-15.8601"/>
		<path fill="#FF0000" stroke="#FF0000" stroke-miterlimit="10" d="M459.622,316.5972c-6.8183,0.4114-13.6367,0.8228-20.455,1.2342
			c-2.2542,11.6641,2.7702,15.8494,15.0732,12.5559"/>
	</g>
	<path d="M756.2312,653c-17.5284-5.0663-28.8074,2.9998-39.2312,17c-10.4238,14.0002-19,18.6667-5,22.6667s28.5129,7.2256,34,0
		c5.4871-7.2257,13.3333-10.5961,19.3333-18.6314C771.3333,666,759.9888,654.0861,756.2312,653z"/>
	<path d="M847.2558,215.7985c-4.1279-0.3992-8.4418-0.3489-12.7089-0.0237c-1.0668,0.0813-2.1304,0.1797-3.1774,0.2926
		C828,215,826,218,823,217c-0.4,2-1.08,3.76-1.9694,5.3497c-0.4448,0.7949-0.9418,1.5471-1.4825,2.2655
		c-0.6548,0.7385-1.3141,1.5131-1.9633,2.3175c-0.6491,0.8044-1.288,1.6385-1.9019,2.4961C809,237,817,246,817,255
		c4-3,8-5,11.9518-6.6233c0.8217-0.0877,1.6576-0.0486,2.517,0.1545C833.1875,248.9375,835,250,837,252c2,1,3-2,5.4683-3.1706
		c0.6263-0.5722,1.2677-1.1531,1.9201-1.721c0.5709-0.4969,1.1501-0.9839,1.735-1.4667s1.1753-0.9613,1.7647-1.4463
		c1.556-4.0977,5.584-8.3965,8.1306-12.7809c0.5093-0.8769,0.9594-1.7572,1.3181-2.6399c2.4422-3.8497-0.2993-6.9107-3.7255-9.2453
		c-0.8565-0.5836-1.7557-1.1218-2.6239-1.6111c-0.8586-0.4722-1.6801-0.8664-2.3993-1.1927
		C848.0199,216.3143,847.5743,215.9878,847.2558,215.7985z"/>
	<path d="M749.6201,197.3499c-4.1279-0.3992-8.4418-0.3488-12.7089-0.0237c-1.0668,0.0813-2.1304,0.1797-3.1774,0.2926
		c-3.3695-1.0674-15.3499-8.5008-18.3499-9.5008c-0.4,2-1.08,3.76-1.9695,5.3497c-0.4447,0.7949-0.9418,1.5471-1.4824,2.2655
		c-0.6548,0.7385-1.3141,1.5131-1.9633,2.3175c-0.6491,0.8044-1.288,1.6385-1.9019,2.4961
		c-6.683,7.5712,11.2974,27.0046,11.2974,36.0046c4-3,8-5,11.9518-6.6233c0.8217-0.0877,1.6576-0.0486,2.517,0.1545
		c1.7188,0.4062,3.5312,1.4688,5.5312,3.4688c2,1,3-2,5.4683-3.1706c0.6263-0.5722,1.2677-1.1531,1.9201-1.721
		c0.5709-0.4969,1.1501-0.9839,1.735-1.4667s1.1753-0.9613,1.7647-1.4463c1.556-4.0977,5.584-8.3965,8.1306-12.7809
		c0.5093-0.8769,0.9594-1.7572,1.3181-2.6399c2.4422-3.8497-0.2993-6.9107-3.7255-9.2453
		c-0.8565-0.5836-1.7557-1.1218-2.6239-1.6111c-0.8586-0.4722-1.6801-0.8664-2.3993-1.1927
		C750.3842,197.8656,749.9386,197.5392,749.6201,197.3499z"/>
	<path d="M916,320c0,0-5.3333-2.6667,8.6667-3.3333c14-0.6667,14-0.6667,14-0.6667S944,319.3333,948,324.6667
		c4,5.3333,14.6667,18.0451,7.3333,18.3559c-7.3333,0.3108,10-1.0226-7.3333,0.3108c-17.3333,1.3333-8.6667,17.3333-17.3333,1.3333
		c-8.6667-16-8.6667-16-8.6667-16L916,320z"/>
</g>
</svg>
