# Blender v2.77 (sub 0) OBJ File: 'base7.blend'
# www.blender.org
mtllib poles.mtl
o BEAMS_Cube.001
v 0.131424 -11.046314 -2.311151
v 0.131424 -6.609257 2.125911
v 0.131424 -6.803898 2.320549
v 0.131424 -11.240955 -2.116512
v -0.113953 -11.058781 -2.323616
v -0.113953 -6.615574 2.119590
v -0.113953 -6.810215 2.314228
v -0.113953 -11.253422 -2.128978
v -0.113937 -11.046345 2.311156
v -0.113937 -6.609272 -2.125904
v -0.113937 -6.803913 -2.320544
v -0.113937 -11.240971 2.116519
v 0.131454 -11.058796 2.323622
v 0.131454 -6.615589 -2.119584
v 0.131454 -6.810230 -2.314222
v 0.131454 -11.253437 2.128984
v 0.131424 -19.405842 -2.311154
v 0.131424 -14.968784 2.125909
v 0.131424 -15.163425 2.320547
v 0.131424 -19.600483 -2.116515
v -0.113953 -19.418308 -2.323619
v -0.113953 -14.975101 2.119588
v -0.113953 -15.169743 2.314226
v -0.113953 -19.612949 -2.128981
v -0.113937 -19.405857 2.311153
v -0.113937 -14.968800 -2.125906
v -0.113937 -15.163441 -2.320546
v -0.113937 -19.600498 2.116516
v 0.131454 -19.418324 2.323619
v 0.131454 -14.975117 -2.119586
v 0.131454 -15.169758 -2.314224
v 0.131454 -19.612965 2.128981
v 0.131424 -27.765369 -2.311155
v 0.131424 -23.328312 2.125907
v 0.131424 -23.522953 2.320545
v 0.131424 -27.960011 -2.116516
v -0.113953 -27.777836 -2.323620
v -0.113953 -23.334629 2.119587
v -0.113953 -23.529270 2.314225
v -0.113953 -27.972477 -2.128982
v -0.113937 -27.765385 2.311152
v -0.113937 -23.328327 -2.125908
v -0.113937 -23.522968 -2.320548
v -0.113937 -27.960026 2.116515
v 0.131454 -27.777851 2.323618
v 0.131454 -23.334644 -2.119587
v 0.131454 -23.529285 -2.314226
v 0.131454 -27.972492 2.128980
v 0.131424 -36.124897 -2.311157
v 0.131424 -31.687840 2.125906
v 0.131424 -31.882481 2.320544
v 0.131424 -36.319538 -2.116518
v -0.113953 -36.137363 -2.323622
v -0.113953 -31.694157 2.119585
v -0.113953 -31.888798 2.314223
v -0.113953 -36.332005 -2.128984
v -0.113937 -36.124912 2.311151
v -0.113937 -31.687855 -2.125910
v -0.113937 -31.882496 -2.320549
v -0.113937 -36.319553 2.116513
v 0.131454 -36.137379 2.323617
v 0.131454 -31.694172 -2.119589
v 0.131454 -31.888813 -2.314228
v 0.131454 -36.332020 2.128978
v -0.185028 -39.521626 2.399997
v -0.185028 0.114056 2.400004
v -0.185028 0.114056 2.100004
v -0.185028 -39.521626 2.099997
v 0.114975 -39.761814 2.399997
v 0.114975 -0.038105 2.400004
v 0.114975 -0.038105 2.100004
v 0.114975 -39.761814 2.099997
v -0.185028 -39.521626 -2.100003
v -0.185028 0.114056 -2.099996
v -0.185028 0.114056 -2.399996
v -0.185028 -39.521626 -2.400003
v 0.114975 -39.761814 -2.100003
v 0.114975 -0.038105 -2.099996
v 0.114975 -0.038105 -2.399996
v 0.114975 -39.761814 -2.400003
vn 1.0000 0.0000 0.0000
vn -0.0000 0.7071 -0.7071
vn 0.0000 -0.7071 0.7071
vn -1.0000 -0.0000 0.0000
vn -0.0000 0.7071 0.7071
vn -0.0000 -0.7071 -0.7071
vn -0.0000 -0.0000 1.0000
vn 0.0000 0.0000 -1.0000
vn 0.5676 0.8233 0.0094
vn -0.5867 -0.0096 0.8097
vn 0.5676 0.0094 0.8233
vn -0.5580 -0.0183 -0.8296
vn 0.5957 -0.8030 0.0190
vn -0.5580 -0.8296 -0.0183
vn -0.5677 0.8232 -0.0094
vn 0.5867 -0.0095 -0.8097
vn -0.5676 0.0093 -0.8232
vn 0.5580 -0.8296 0.0183
vn -0.5957 0.0189 0.8030
vn -0.5956 -0.8030 -0.0190
vn 0.5580 -0.0183 0.8296
vn -0.5676 0.8233 -0.0094
vn 0.5867 -0.0096 -0.8097
vn 0.5956 -0.8030 0.0190
vn -0.5580 -0.8296 -0.0184
vn 0.5580 -0.8296 0.0184
vn -0.4348 0.7079 -0.5566
vn 0.6778 0.4162 0.6061
vn 0.6778 0.4162 -0.6061
vn -0.7062 -0.3393 -0.6214
vn 0.3616 -0.7529 0.5499
vn -0.7062 -0.3393 0.6214
vn -0.4348 0.7079 0.5566
vn 0.3616 -0.7529 -0.5499
vn -0.5867 0.8097 -0.0095
vn 0.5956 0.0190 -0.8030
vn 0.5867 0.8097 0.0095
vn 0.5581 -0.0182 0.8296
vn 0.5868 0.8097 0.0095
vn 0.5867 0.8097 0.0096
usemtl None
s off
f 1//1 3//1 4//1
f 6//2 1//2 5//2
f 4//3 7//3 8//3
f 7//4 5//4 8//4
f 10//4 12//4 9//4
f 14//5 9//5 13//5
f 12//6 15//6 16//6
f 15//1 13//1 16//1
f 18//1 20//1 17//1
f 22//2 17//2 21//2
f 20//3 23//3 24//3
f 23//4 21//4 24//4
f 25//4 27//4 28//4
f 30//5 25//5 29//5
f 28//6 31//6 32//6
f 31//1 29//1 32//1
f 33//1 35//1 36//1
f 38//2 33//2 37//2
f 36//3 39//3 40//3
f 39//4 37//4 40//4
f 41//4 43//4 44//4
f 46//5 41//5 45//5
f 44//6 47//6 48//6
f 47//1 45//1 48//1
f 50//1 52//1 49//1
f 54//2 49//2 53//2
f 52//3 55//3 56//3
f 55//4 53//4 56//4
f 58//4 60//4 57//4
f 62//5 57//5 61//5
f 60//6 63//6 64//6
f 63//1 61//1 64//1
f 66//4 68//4 65//4
f 70//7 65//7 69//7
f 68//8 71//8 72//8
f 71//1 69//1 72//1
f 74//4 76//4 73//4
f 78//7 73//7 77//7
f 76//8 79//8 80//8
f 79//1 77//1 80//1
f 1//1 2//1 3//1
f 6//2 2//2 1//2
f 4//3 3//3 7//3
f 7//4 6//4 5//4
f 10//4 11//4 12//4
f 14//5 10//5 9//5
f 12//6 11//6 15//6
f 15//1 14//1 13//1
f 18//1 19//1 20//1
f 22//2 18//2 17//2
f 20//3 19//3 23//3
f 23//4 22//4 21//4
f 25//4 26//4 27//4
f 30//5 26//5 25//5
f 28//6 27//6 31//6
f 31//1 30//1 29//1
f 33//1 34//1 35//1
f 38//2 34//2 33//2
f 36//3 35//3 39//3
f 39//4 38//4 37//4
f 41//4 42//4 43//4
f 46//5 42//5 41//5
f 44//6 43//6 47//6
f 47//1 46//1 45//1
f 50//1 51//1 52//1
f 54//2 50//2 49//2
f 52//3 51//3 55//3
f 55//4 54//4 53//4
f 58//4 59//4 60//4
f 62//5 58//5 57//5
f 60//6 59//6 63//6
f 63//1 62//1 61//1
f 66//4 67//4 68//4
f 70//7 66//7 65//7
f 68//8 67//8 71//8
f 71//1 70//1 69//1
f 74//4 75//4 76//4
f 78//7 74//7 73//7
f 76//8 75//8 79//8
f 79//1 78//1 77//1
s 1
f 2//9 7//10 3//11
f 5//12 4//13 8//14
f 10//15 15//16 11//17
f 16//18 9//19 12//20
f 18//9 23//10 19//11
f 21//12 20//13 24//14
f 26//15 31//16 27//17
f 29//21 28//20 32//18
f 34//9 39//10 35//11
f 37//12 36//13 40//14
f 42//22 47//23 43//17
f 45//21 44//20 48//18
f 50//9 55//10 51//11
f 53//12 52//24 56//25
f 58//15 63//16 59//17
f 64//26 57//19 60//20
f 67//27 70//28 71//29
f 68//30 69//31 65//32
f 79//29 74//33 78//28
f 77//31 76//30 80//34
f 2//9 6//35 7//10
f 5//12 1//36 4//13
f 10//15 14//37 15//16
f 16//18 13//38 9//19
f 18//9 22//35 23//10
f 21//12 17//36 20//13
f 26//15 30//39 31//16
f 29//21 25//19 28//20
f 34//9 38//35 39//10
f 37//12 33//36 36//13
f 42//22 46//40 47//23
f 45//21 41//19 44//20
f 50//9 54//35 55//10
f 53//12 49//36 52//24
f 58//15 62//39 63//16
f 64//26 61//38 57//19
f 67//27 66//33 70//28
f 68//30 72//34 69//31
f 79//29 75//27 74//33
f 77//31 73//32 76//30
