<?xml version="1.0" encoding="utf-8"?>
<!-- Generator: Adobe Illustrator 18.0.0, SVG Export Plug-In . SVG Version: 6.00 Build 0)  -->
<!DOCTYPE svg PUBLIC "-//W3C//DTD SVG 1.1//EN" "http://www.w3.org/Graphics/SVG/1.1/DTD/svg11.dtd">
<svg version="1.1" xmlns="http://www.w3.org/2000/svg" xmlns:xlink="http://www.w3.org/1999/xlink" x="0px" y="0px"
	 viewBox="0 0 1000 1000" enable-background="new 0 0 1000 1000" xml:space="preserve">
<g id="bg" display="none">
	
		<image display="inline" overflow="visible" width="808" height="778" xlink:href="../../../../Desktop/Screen Shot 2016-12-02 at 10.08.24 AM.png"  transform="matrix(1.3714 0 0 1.3714 -41 -26.9813)">
	</image>
</g>
<g id="map" display="none">
	<path display="inline" fill="#00FF00" d="M868,270c-39.516,22.2278-62.4418,77.2765-65.536,120.256
		c-3.5485,49.2917,22.4069,92.1673,0.467,139.9964c-21.6616,47.2224,15.4016,22.813,41.3051,7.0831
		c17.7334-10.7686,35.179-22.0889,53.4207-31.996c34.501-18.7374,65.6839-6.17,102.3432-9.4743c0-86.0034,0-172.0068,0-258.0103
		C958.3454,262.3746,907.3415,247.8704,868,270C836,288,895.201,254.6994,868,270z"/>
	<path display="inline" fill="#FF0000" d="M744.4202,305.0442c0-51.5459,125.1516-20.0388,90.0714,13.9145
		c-14.5286,11.1067-10.2524,46.5903-35.6324,33.0507C781.1552,342.5647,744.4202,329.8331,744.4202,305.0442z"/>
	<path display="inline" fill="#FF0000" d="M817.4243,801.2272C811.3431,815.211,801.6613,841.8871,823,849
		c15.7285,0,32.476-43.5255,38.5-55.0312c5.89-11.2499,24.5634-34.31-1.1667-38.5984
		C831.0436,750.4888,825.8459,781.4806,817.4243,801.2272C811,816,818.4676,798.781,817.4243,801.2272z"/>
	<path display="inline" fill="#FF0000" d="M962.0271,65.963C952.6558,85.8529,914.8094,63.0469,912,49
		C912,28.7591,961.2676,49.8788,962.0271,65.963C954,83,961.8608,62.4414,962.0271,65.963z"/>
	<path display="inline" fill="#FF0000" d="M973.1497,512.1121c-9.6198-39.6693-66.7391-28.4001-84.0247-1.2371
		C881.1767,523.3652,971.8954,538.9939,973.1497,512.1121C969,495,973.0248,514.7886,973.1497,512.1121z"/>
	<path display="inline" fill="#00FF00" d="M627.2623,752.7928C590.8704,754.5982,430.7983,835.3621,492,891
		c30.0538,25.0449-25.4471,67.2764-52,54c-28.6016-14.3008-4.4181-68.9158,12.9016-82.7543
		c21.8004-17.4186,32.9727-41.8689,57.1688-62.0452c37.1844-31.0067,82.5438-40.6805,108.2737-80.3973
		C581.0698,620.3542,506.9789,609.495,427.25,666.75c-63.8961,45.8851-73.3181,99.0025-86.6849,171.804
		c-8.2633,45.0054-9.0419,90.5095-2.6311,135.8316c4.9034,34.6656,9.6991,25.6144,40.5925,25.6144c52.6516,0,105.3031,0,157.9547,0
		c8.9125,0,37.0827-92.5756,43.6165-107.0482C599.8446,849.2109,635.3274,802.9698,627.2623,752.7928
		C623.4299,752.9829,630.3267,771.8578,627.2623,752.7928z"/>
	<path display="inline" fill="#FF0000" d="M427.8242,911.9153c14.2442-46.893,63.5971-98.6352,69.6158-18.7073
		C502.0506,954.4367,412.8909,962.0002,427.8242,911.9153C436,885,426.8486,915.1874,427.8242,911.9153z"/>
	<g display="inline">
		<path fill="#00FF00" d="M374.4556,180.0857C372.1547,194.0258,368.6695,207.6638,364,221
			c48.6866,24.3433,71.4053-53.7034,63.374-82.9646C416.2147,97.3779,433.6075,22.9532,469.1194,0c-42.2256,0-84.4511,0-126.6767,0
			C339.1742,56.8873,391.4967,126.7996,374.4556,180.0857C370,193,375.1491,177.917,374.4556,180.0857z"/>
		<path fill="#00FF00" d="M544,290c5.5836-92.1286-96.5353-132.7604-152.4416-56.4612
			c-53.027,55.9182-13.8422,84.6868,40.2591,109.0809c20.8972,9.4225,42.1095,15.4421,50.7907,39.0764
			c10.5042,28.5972-24.6826,39.722-21.787,61.1232c0.0695,0.5137,101.6488-5.4568,105.901-13.0527
			C583.9962,398.9099,541.802,326.2673,544,290z"/>
	</g>
	<path display="inline" fill="#FF0000" d="M427.5214,158.8205c9.2435-41.8769,82.1833-43.3891,70.8536,1.9295
		C488.7466,199.2635,413.4492,204.7236,427.5214,158.8205C433,134,426.6444,161.6811,427.5214,158.8205z"/>
	<path display="inline" fill="#FF0000" d="M380.6819,263.0471c-19.8045,79.8864-79.3321,53.6037-84.5337-14.0115
		c-3.3569-43.6362,22.8591-43.4327,59.8518-38.2948C395.3201,216.2018,394.1648,223.338,380.6819,263.0471
		C374,290,381.4969,260.6466,380.6819,263.0471z"/>
	<path display="inline" d="M218.5944,499.2415c7.6351,45.0061,88.8572,26.8025,117.7818,26.7011
		c46.4533,3.431,78.8148,20.6664,125.4982,24.7508c54.8344,4.7976,122.8745,31.8726,178.582,30.8929
		c47.6634,2.0016,107.5025-4.1087,128.6536-63.6782c17.0238-47.9454-19.6922-89.0895-64.1466-89.3142
		c-24.1051-0.1218-52.6033,7.6444-76.5287,9.2699c-35.9495,4.4292-71.2993,0.518-106.8454,4.9863
		c-55.5644,6.9847-95.8145-8.2565-161.9919,12.0958C340.3354,460.8697,219.9142,464.4451,218.5944,499.2415
		C223.0783,525.6724,218.7033,496.369,218.5944,499.2415z"/>
	<path display="inline" fill="#FF0000" d="M33,83c-4.7996,7.1993-12.6789,25.9157-7.0312,34.5938
		C30.9407,125.2335,73.0625,76.7742,33,83z"/>
	<path display="inline" fill="#FF0000" stroke="#FF0000" stroke-width="14" stroke-miterlimit="10" d="M83.6112,704.5802
		c22.6991-11.4789,41.3168-24.1898,67.4966-25.4988c5.8545-0.2927,46.4336,11.7932,24.7668,22.7029
		c-21.3165,10.7333-46.2099,8.0857-68.5766,21.2629C84.2935,736.6003,53.501,719.8068,83.6112,704.5802z"/>
	<path display="inline" fill="#FF0000" stroke="#FF0000" stroke-miterlimit="10" d="M204.5894,104.5506
		c8.3337-15.1913,22.1399-26.1173,37.8656-32.8889c16.6174,30.1535-6.4674,68.426-40.8907,67.7934
		C196.8566,127.35,197.8649,115.7152,204.5894,104.5506C207.3367,99.5426,198.7359,115.2207,204.5894,104.5506z"/>
	<path display="inline" fill="#FF0000" stroke="#FF0000" stroke-miterlimit="10" d="M167.1162,293.5891
		c-0.0385,6.3409-0.0771,12.6819-0.1156,19.0228c0.7077-1.0714,23.2406-50.8947,3.5498-35.8346"/>
	<path display="inline" fill="#FF0000" stroke="#FF0000" stroke-miterlimit="10" d="M52.9345,421.4669
		C54.5724,498.4743,95.3591,418.0513,52.9345,421.4669C52.9106,420.3427,61.3262,420.7913,52.9345,421.4669z"/>
	<path display="inline" fill="#FF0000" stroke="#FF0000" stroke-miterlimit="10" d="M188.6458,843.2113
		c-7.6263-11.3519-2.9224-27.1316,9.4682-32.6434c20.5568-9.1444,18.4361,19.9275,21.9204,32.8655
		C209.5715,843.3594,199.1086,843.2853,188.6458,843.2113C183.8375,836.0541,199.1086,843.2853,188.6458,843.2113z"/>
	<path display="inline" fill="#FF0000" stroke="#FF0000" stroke-miterlimit="10" d="M725.8314,632.4516
		c-28.7292,3.3977-48.0924,32.8683-39.8071,60.5859C715.8118,690.9622,722.0603,659.7252,725.8314,632.4516
		C712.1666,634.0677,722.9171,653.5286,725.8314,632.4516z"/>
	<path display="inline" fill="#FF0000" stroke="#FF0000" stroke-miterlimit="10" d="M649.345,189.1299
		c15.8093-3.856,54.8228,2.0341,42.6959,28.843C677.6535,249.7793,645.8486,210.7408,649.345,189.1299
		C659.7729,186.5864,647.3463,201.4833,649.345,189.1299z"/>
	<path display="inline" fill="#FF0000" stroke="#FF0000" stroke-miterlimit="10" d="M608.0972,32.2986
		c-6.5856-10.4742-36.5378-7.4314-36.2405,8.0736C572.3973,68.5663,619.3329,50.1687,608.0972,32.2986z"/>
	<path display="inline" fill="#FF0000" stroke="#FF0000" stroke-miterlimit="10" d="M672.5334,383.8403
		c-7.4178,1.3033-14.8357,2.6067-22.2535,3.91C655.0566,380.8701,665.6973,379.0005,672.5334,383.8403z"/>
	<path display="inline" fill="#FF0000" stroke="#FF0000" stroke-miterlimit="10" d="M806.5751,62.6123
		c0.0001-13.1019,18.7512-7.4935,5.976-7.505c-1.0048,4.4988-2.0095,8.9975-3.0143,13.4963"/>
	<path display="inline" fill="#FF0000" stroke="#FF0000" stroke-miterlimit="10" d="M70.6671,903.5123
		c10.2487,10.1989,3.5022,26.0187-8.6475,28.3712c-1.2572-9.2625-2.5145-18.5249-3.7717-27.7874
		C62.3876,903.9015,66.5274,903.7068,70.6671,903.5123C74.9641,907.7883,67.1671,900.6088,70.6671,903.5123z"/>
	<path display="inline" fill="#FF0000" stroke="#FF0000" stroke-miterlimit="10" d="M142.9136,546.8973
		c-1.6666-3.7698-3.3332-7.5396-4.9998-11.3094c-7.2211,2.8798-10.7675,8.2062-10.6394,15.9793
		C134.4299,554.2982,139.6429,552.7416,142.9136,546.8973C141.247,543.1275,141.5576,548.4011,142.9136,546.8973z"/>
	<path display="inline" fill="#FF0000" stroke="#FF0000" stroke-miterlimit="10" d="M160.3914,389.4846
		c4.5389-1.206,9.0778-2.412,13.6168-3.6179C171.437,394.4789,166.898,395.6848,160.3914,389.4846
		C164.9303,388.2787,161.8532,392.4216,160.3914,389.4846z"/>
	<path display="inline" fill="#FF0000" stroke="#FF0000" stroke-miterlimit="10" d="M729.32,819.4711
		c-1.3055-7.6215-2.6111-15.243-3.9166-22.8645C738.7754,795.9066,742.1627,815.6806,729.32,819.4711
		C728.0145,811.8496,734.7469,817.8693,729.32,819.4711z"/>
	<path display="inline" fill="#FF0000" stroke="#FF0000" stroke-miterlimit="10" d="M660.304,314.7953
		c-24.3377,6.2669-27.0283-17.2575-3.9795-17.6223"/>
	<path display="inline" fill="#FF0000" stroke="#FF0000" stroke-miterlimit="10" d="M299.58,351.7747
		c-7.5759,0.4571-15.1519,0.9142-22.7278,1.3713c-2.5047,12.9601,3.078,17.6104,16.748,13.951"/>
</g>
<g id="texture">
	<polygon fill="#C8C8C8" points="730.6667,0 751.3333,46 761.3333,98 788,145.3333 820.6667,164.6667 878.6667,199.3333 
		952,188.0602 1000,188.0602 1000,247 974,279.8132 881.3333,244.6667 846.6667,237.8549 792.5574,214.6667 754,168 
		707.3333,154.6667 707.3333,125.3333 671.7097,68.6035 686.6667,0 	"/>
</g>
</svg>
