<?xml version="1.0" encoding="utf-8"?>
<!-- Generator: Adobe Illustrator 18.0.0, SVG Export Plug-In . SVG Version: 6.00 Build 0)  -->
<!DOCTYPE svg PUBLIC "-//W3C//DTD SVG 1.1//EN" "http://www.w3.org/Graphics/SVG/1.1/DTD/svg11.dtd">
<svg version="1.1" id="Layer_1" xmlns="http://www.w3.org/2000/svg" xmlns:xlink="http://www.w3.org/1999/xlink" x="0px" y="0px"
	 viewBox="0 0 250 250" enable-background="new 0 0 250 250" xml:space="preserve">
<g>
	<path fill="#00FF00" d="M214.5025,68.7031c-0.0471,0.0265-0.085,0.0478-0.1122,0.0631
		C214.4186,68.7504,214.4569,68.7288,214.5025,68.7031z"/>
	<path fill="#00FF00" d="M214.3349,68.7974C214.3284,68.8011,214.3289,68.8008,214.3349,68.7974L214.3349,68.7974z"/>
	<path fill="#00FF00" d="M214.7751,68.5498c-0.1083,0.0609-0.2006,0.1129-0.2726,0.1533
		C214.571,68.6646,214.6608,68.6141,214.7751,68.5498z"/>
	<path fill="#00FF00" d="M214.3746,68.7751c-0.0205,0.0116-0.0335,0.0189-0.0397,0.0223
		C214.3416,68.7936,214.3557,68.7857,214.3746,68.7751z"/>
	<path fill="#00FF00" d="M214.3903,68.7663c-0.0064,0.0036-0.0103,0.0058-0.0157,0.0088
		C214.3797,68.7722,214.3844,68.7696,214.3903,68.7663z"/>
	<path fill="#00FF00" d="M215.0107,68.4173c-0.0871,0.049-0.1666,0.0937-0.2356,0.1325
		C214.847,68.5094,214.9259,68.465,215.0107,68.4173z"/>
	<path fill="#00FF00" d="M215.9006,67.9167c-0.0607,0.0342-0.1203,0.0676-0.177,0.0996
		C215.7818,67.9835,215.8408,67.9503,215.9006,67.9167z"/>
	<path fill="#00FF00" d="M215.1141,68.3591c-0.0353,0.0199-0.0698,0.0393-0.1034,0.0582
		C215.0443,68.3984,215.0777,68.3796,215.1141,68.3591z"/>
	<path fill="#00FF00" d="M216.3967,67.6376c-0.1675,0.0942-0.334,0.1879-0.4961,0.2791
		C216.0538,67.8305,216.2171,67.7387,216.3967,67.6376z"/>
	<path fill="#00FF00" d="M215.4974,68.1435c-0.1422,0.08-0.2696,0.1516-0.3833,0.2156
		C215.2336,68.2919,215.3618,68.2198,215.4974,68.1435z"/>
	<path fill="#00FF00" d="M215.7236,68.0163c-0.0769,0.0432-0.1526,0.0859-0.2261,0.1272
		C215.5687,68.1034,215.6448,68.0606,215.7236,68.0163z"/>
	<path fill="#00FF00" d="M216.3967,67.6376c0.1244-0.07,0.2489-0.14,0.3723-0.2094c0,0,0,0,0,0
		C216.6387,67.5015,216.5151,67.571,216.3967,67.6376z"/>
	<path fill="#00FF00" d="M217.0881,67.2487c-0.1008,0.0567-0.2065,0.1162-0.319,0.1794c0,0,0,0,0.0001,0
		C216.877,67.3675,216.9835,67.3076,217.0881,67.2487z"/>
	<path fill="#00FF00" d="M218.5627,66.4193C218.6227,66.3855,218.6263,66.3835,218.5627,66.4193L218.5627,66.4193z"/>
	<polygon fill="#00FF00" points="216.7691,67.4282 216.769,67.4282 216.7692,67.4281 	"/>
	<path fill="#00FF00" d="M218.5243,66.4409c0.015-0.0085,0.0275-0.0155,0.0384-0.0216
		C218.552,66.4253,218.5384,66.4329,218.5243,66.4409z"/>
	<path fill="#00FF00" d="M216.769,67.4282c-9.8685,5.5511-15.5938,19.2986-16.3665,30.032
		c-0.8862,12.3098,5.5958,23.0173,0.1166,34.9619c-5.4096,11.793,3.8463,5.6972,10.3153,1.7689
		c4.4286-2.6893,8.7854-5.5164,13.341-7.9905c8.6161-4.6794,16.4035-1.5409,25.5586-2.3661c0-21.478,0-42.9559,0-64.4339
		c-10.4025,6.1234-23.1399,2.5013-32.9648,8.0277C216.7691,67.4281,216.7691,67.4282,216.769,67.4282z"/>
	<path fill="#00FF00" d="M217.5647,66.9807c0.1181-0.0664,0.2228-0.1253,0.3189-0.1794
		C217.784,66.8573,217.6772,66.9174,217.5647,66.9807z"/>
	<path fill="#00FF00" d="M217.3441,67.1048c0.0757-0.0426,0.1489-0.0838,0.2206-0.1241
		C217.4948,67.02,217.422,67.0609,217.3441,67.1048z"/>
	<path fill="#00FF00" d="M218.4662,66.4736c0.0217-0.0122,0.0411-0.0231,0.0581-0.0327
		C218.5074,66.4504,218.4886,66.461,218.4662,66.4736z"/>
	<path fill="#00FF00" d="M217.0881,67.2487c0.0895-0.0504,0.1753-0.0986,0.256-0.144
		C217.2608,67.1516,217.175,67.1999,217.0881,67.2487z"/>
	<path fill="#00FF00" d="M218.3756,66.5245c0.0341-0.0192,0.0643-0.0361,0.0905-0.0509
		C218.4391,66.4888,218.4094,66.5055,218.3756,66.5245z"/>
	<path fill="#00FF00" d="M217.8836,66.8012c0.198-0.1114,0.3671-0.2065,0.492-0.2767
		C218.2603,66.5894,218.0973,66.6811,217.8836,66.8012z"/>
	<path fill="#FF0000" d="M185.907,76.1799c0,6.1906,9.174,9.3701,13.5953,11.7288c6.3383,3.3813,5.2703-5.4802,8.8986-8.2539
		C217.1616,71.1755,185.907,63.3071,185.907,76.1799z"/>
	<path fill="#FF0000" d="M204.1386,200.0937c0.0077-0.0179,0.0151-0.0368,0.0227-0.0548
		C204.1037,200.1641,202.6719,203.4663,204.1386,200.0937z"/>
	<path fill="#FF0000" d="M214.8545,188.6417c-7.288-1.2147-8.6034,6.4635-10.6931,11.3972
		c0.0054-0.0118-0.0004,0.0023-0.0227,0.0548c-1.5187,3.4922-3.9366,10.1542,1.3924,11.9305c3.9279,0,8.1104-10.8698,9.6148-13.7432
		C216.6168,195.4715,221.2801,189.7126,214.8545,188.6417z"/>
	<path fill="#FF0000" d="M240.2509,16.4732c-0.1737,0.3686-0.3873,0.6771-0.6328,0.9336
		C239.2605,18.2503,239.0885,18.9402,240.2509,16.4732z"/>
	<path fill="#FF0000" d="M227.7574,12.237c0.6495,3.2477,8.7978,8.3689,11.8607,5.1698c0.2591-0.6113,0.6154-1.3031,0.6328-0.9336
		C240.0612,12.4564,227.7574,7.1821,227.7574,12.237z"/>
	<path fill="#FF0000" d="M239.618,17.4068c0.2455-0.2564,0.4592-0.565,0.6328-0.9336
		C240.2334,16.1037,239.8771,16.7955,239.618,17.4068z"/>
	<path fill="#FF0000" d="M242.6663,126.7212c-3.2133-8.4927-16.4846-5.6392-20.6216,0.8617
		c-1.985,3.1192,20.6706,7.0222,20.9838,0.3089C243.0144,128.1953,242.7998,127.3431,242.6663,126.7212z"/>
	<path fill="#FF0000" d="M242.6663,126.7212c0.1397,0.3692,0.2622,0.7579,0.3623,1.1706
		C242.4627,125.5585,242.5058,125.9732,242.6663,126.7212z"/>
	<path fill="#FF0000" d="M243.0285,127.8918c-0.1001-0.4128-0.2226-0.8014-0.3623-1.1706
		C242.7998,127.3431,243.0144,128.1953,243.0285,127.8918z"/>
	<path fill="#00FF00" d="M156.9405,191.5407c0.1347,0.3419,0.2231,0.345,0.155-0.3447c-0.0182-0.1838-0.0832-0.3493-0.1765-0.4937
		C156.9307,190.9823,156.9386,191.2618,156.9405,191.5407z"/>
	<path fill="#00FF00" d="M156.919,190.7024c-0.0375-0.8965-0.1246-1.7978-0.2703-2.7045c-0.4173,0.0207-0.2693,1.3224-0.0334,2.3905
		C156.7359,190.4719,156.8386,190.578,156.919,190.7024z"/>
	<path fill="#00FF00" d="M156.919,190.7024c-0.0804-0.1244-0.1832-0.2305-0.3037-0.3139c0.1051,0.4761,0.2272,0.9035,0.3252,1.1523
		C156.9386,191.2618,156.9307,190.9823,156.919,190.7024z"/>
	<path fill="#00FF00" d="M133.9776,249.734c2.2257,0,9.2608-23.1193,10.8925-26.7336c4.4633-9.8865,12.1451-20.2845,12.0704-31.4597
		c-0.098-0.2487-0.22-0.6762-0.3252-1.1523c-0.2287-0.1583-0.5143-0.2366-0.8126-0.1908
		c-10.8676,1.6683-47.6493,18.9373-32.9336,32.3153c7.5054,6.2546-6.355,16.8012-12.9862,13.4856
		c-7.1428-3.5714-1.1033-17.2106,3.222-20.6665c5.4443-4.35,8.2344-10.4561,14.277-15.4948
		c9.2862-7.7434,20.614-10.1593,27.0396-20.0779c-9.3087-24.8358-27.8117-27.5477-47.7227-13.2492
		c-15.957,11.4591-18.31,24.7243-21.6482,42.9053c-2.0636,11.2394-2.2581,22.6033-0.6571,33.9218
		c0.8036,5.6813,1.5956,6.6607,4.2257,6.6628c1.3776,0.0011,3.2596-0.266,5.9117-0.266
		C107.6798,249.734,120.8287,249.734,133.9776,249.734z"/>
	<path fill="#FF0000" d="M106.8422,227.7362c0.0138-0.0454,0.0289-0.0909,0.0429-0.1363
		C107.2013,226.5648,108.5687,222.0525,106.8422,227.7362z"/>
	<path fill="#FF0000" d="M106.8337,227.7676c0.0031-0.0106,0.0053-0.0207,0.0085-0.0314
		C106.82,227.8109,106.819,227.8152,106.8337,227.7676z"/>
	<path fill="#FF0000" d="M106.8422,227.7362c-0.0032,0.0107-0.0054,0.0208-0.0085,0.0314c0.0102-0.0329,0.0278-0.0905,0.0514-0.1677
		C106.8711,227.6453,106.856,227.6909,106.8422,227.7362z"/>
	<path fill="#FF0000" d="M106.8851,227.5999c-0.0236,0.0772-0.0413,0.1348-0.0514,0.1677
		c-3.6819,12.4727,18.5444,10.5746,17.3939-4.7032C122.7304,203.181,110.496,215.9257,106.8851,227.5999z"/>
	<path fill="#00FF00" d="M93.53,44.921c0.0008-0.0002-0.0036,0.0149-0.0157,0.0525c-0.5746,3.4813-1.445,6.8872-2.6111,10.2177
		c12.1587,6.0793,17.8323-13.4116,15.8266-20.7191C103.9429,24.3186,108.2865,5.7322,117.155,0c-10.5452,0-21.0903,0-31.6355,0
		C84.7044,14.1881,97.7349,31.6202,93.53,44.921z"/>
	<path fill="#00FF00" d="M93.5143,44.9735c0.0056-0.0174,0.0102-0.0351,0.0157-0.0525
		C93.5197,44.9234,92.4789,47.9746,93.5143,44.9735z"/>
	<path fill="#00FF00" d="M135.8553,72.4229c1.3944-23.0076-24.1082-33.1548-38.0699-14.1003
		c-13.2426,13.9647-3.4569,21.1492,10.0541,27.2412c5.2187,2.3531,10.5162,3.8564,12.6842,9.7587
		c2.6233,7.1417-6.1641,9.9199-5.4409,15.2645c0.0173,0.1283,25.3852-1.3627,26.4471-3.2597
		C145.8437,99.6214,135.3064,81.48,135.8553,72.4229z"/>
	<path fill="#FF0000" d="M106.7666,39.6629c-3.5143,11.4636,15.29,10.1,17.6945,0.4819
		C127.2906,28.8271,109.075,29.2048,106.7666,39.6629z"/>
	<path fill="#FF0000" d="M106.7666,39.6629C108.1348,33.4644,106.5476,40.3773,106.7666,39.6629L106.7666,39.6629z"/>
	<path fill="#FF0000" d="M88.9053,52.6291c-9.2383-1.2831-15.7854-1.3339-14.947,9.5635
		c1.299,16.8858,16.1651,23.4495,21.1109,3.4991C98.4363,55.7751,98.7249,53.9929,88.9053,52.6291z"/>
	<path fill="#FF0000" d="M95.0692,65.6918C93.4005,72.4229,95.2727,65.0923,95.0692,65.6918L95.0692,65.6918z"/>
	<path d="M54.8333,125.7198c-0.0992-0.3315-0.1811-0.6782-0.2428-1.0422C55.3551,129.1847,55.0882,127.2024,54.8333,125.7198z"/>
	<path d="M54.5905,124.6776c0.0004-0.0109,0.0025-0.0213,0.003-0.0321C54.5921,124.6535,54.591,124.6634,54.5905,124.6776z"/>
	<path d="M54.5934,124.6454c-0.0005,0.0108-0.0025,0.0213-0.003,0.0321c0.0618,0.364,0.1436,0.7106,0.2428,1.0422
		C54.7222,125.0738,54.6136,124.5236,54.5934,124.6454z"/>
	<path d="M176.0533,107.0344c-6.0199-0.0304-13.1368,1.9091-19.1118,2.315c-8.9778,1.1061-17.8058,0.1294-26.6829,1.2452
		c-13.8763,1.7443-23.9281-2.0619-40.4549,3.0207c-4.8044,1.4775-34.8069,2.3705-35.2103,11.03
		c0.0202-0.1218,0.1288,0.4284,0.2399,1.0743c2.9648,9.9069,22.1817,5.6505,29.1713,5.626
		c11.601,0.8568,19.6827,5.1611,31.3412,6.1811c13.694,1.1981,30.6859,7.9597,44.598,7.715
		c11.9032,0.4999,26.847-1.0261,32.1292-15.9026C196.3243,117.3656,187.1551,107.0906,176.0533,107.0344z"/>
	<g id="Layer_2">
		<path fill="#FF0000" d="M8.2412,20.7279c-1.1986,1.7979-3.1664,6.472-1.7559,8.6393
			C7.7269,31.2751,18.2462,19.1731,8.2412,20.7279z"/>
		<path fill="#FF0000" stroke="#FF0000" stroke-width="14" stroke-miterlimit="10" d="M37.7367,169.5897
			c-6.538,0.3269-11.1875,3.5013-16.8562,6.3679c-7.5195,3.8026,0.1704,7.9965,5.9154,4.6118
			c5.5857-3.2908,11.8025-2.6296,17.1259-5.3101C49.3328,172.5349,39.1988,169.5166,37.7367,169.5897z"/>
		<path fill="#FF0000" stroke="#FF0000" stroke-miterlimit="10" d="M51.1362,26.0309
			C51.2433,25.8357,51.2813,25.7664,51.1362,26.0309L51.1362,26.0309z"/>
		<path fill="#FF0000" stroke="#FF0000" stroke-miterlimit="10" d="M51.1362,26.0309c-0.0135,0.0246-0.0281,0.0512-0.0435,0.0793
			c0.0001-0.0001,0.0001-0.0002,0.0002-0.0004C51.1095,26.0797,51.1229,26.0552,51.1362,26.0309z"/>
		<path fill="#FF0000" stroke="#FF0000" stroke-miterlimit="10" d="M50.6796,26.8633c0-0.0001,0.0001-0.0002,0.0002-0.0003
			C50.5607,27.0799,50.5151,27.1632,50.6796,26.8633z"/>
		<path fill="#FF0000" stroke="#FF0000" stroke-miterlimit="10" d="M51.0929,26.1098c-0.0094,0.0172-0.017,0.0311-0.0262,0.0477
			c-0.0054,0.0098-0.0107,0.0195-0.0162,0.0295c-0.054,0.0984-0.1025,0.1869-0.1462,0.2665
			c-0.0581,0.1058-0.1158,0.211-0.1669,0.3042c-0.0216,0.0393-0.0409,0.0747-0.0579,0.1055
			c-1.2956,2.5573-1.4124,5.2115-0.3422,7.9634c8.5967,0.158,14.3617-9.4,10.2118-16.9303
			C56.622,19.5875,53.1741,22.3161,51.0929,26.1098z"/>
		<path fill="#FF0000" stroke="#FF0000" stroke-miterlimit="10" d="M51.0668,26.1576c-0.0057,0.0103-0.0107,0.0194-0.0162,0.0295
			C51.0561,26.177,51.0614,26.1673,51.0668,26.1576z"/>
		<path fill="#FF0000" stroke="#FF0000" stroke-miterlimit="10" d="M50.9044,26.4535c0.0504-0.0919,0.1006-0.1834,0.1462-0.2665
			c0.0055-0.0101,0.0105-0.0192,0.0162-0.0295c0.0089-0.0162,0.0175-0.032,0.026-0.0473c-0.1505,0.2499-0.2854,0.501-0.4129,0.7527
			c0.0178-0.0325,0.0371-0.0677,0.0577-0.1052C50.7823,26.6761,50.8376,26.5753,50.9044,26.4535z"/>
		<path fill="#FF0000" stroke="#FF0000" stroke-miterlimit="10" d="M50.9044,26.4535c-0.0668,0.1217-0.1221,0.2226-0.1669,0.3042
			C50.7886,26.6646,50.8463,26.5594,50.9044,26.4535z"/>
		<path fill="#FF0000" stroke="#FF0000" stroke-miterlimit="10" d="M42.5922,69.1207l-0.8576,4.1985
			c-0.0096,1.5835-0.0193,3.1671-0.0289,4.7506C41.8825,77.8023,47.5097,65.3597,42.5922,69.1207z"/>
		<path fill="#FF0000" stroke="#FF0000" stroke-miterlimit="10" d="M13.2195,105.2546
			C15.3152,105.0859,13.2136,104.9739,13.2195,105.2546L13.2195,105.2546z"/>
		<path fill="#FF0000" stroke="#FF0000" stroke-miterlimit="10" d="M13.2195,105.2546
			C13.6286,124.486,23.8144,104.4016,13.2195,105.2546L13.2195,105.2546z"/>
		<path fill="#FF0000" stroke="#FF0000" stroke-miterlimit="10" d="M47.1113,210.5785
			C49.7242,210.597,45.9105,208.7911,47.1113,210.5785L47.1113,210.5785z"/>
		<path fill="#FF0000" stroke="#FF0000" stroke-miterlimit="10" d="M49.4758,202.4264c-3.0944,1.3765-4.2691,5.3172-2.3645,8.1522
			c-1.2008-1.7874,2.6129,0.0185,0,0c2.6129,0.0185,5.2259,0.037,7.8388,0.0555C54.0799,207.4029,54.6095,200.1427,49.4758,202.4264
			z"/>
		<path fill="#FF0000" stroke="#FF0000" stroke-miterlimit="10" d="M181.0899,157.9705
			c-7.0774,0.9471-11.8185,8.2393-9.7663,15.1045c7.439-0.5183,8.9994-8.3192,9.9412-15.1304
			C180.5498,163.1152,177.947,158.5173,181.0899,157.9705z"/>
		<path fill="#FF0000" stroke="#FF0000" stroke-miterlimit="10" d="M181.2648,157.9447c-0.0589,0.007-0.1163,0.018-0.1749,0.0258
			C177.947,158.5173,180.5498,163.1152,181.2648,157.9447z"/>
		<path fill="#FF0000" stroke="#FF0000" stroke-miterlimit="10" d="M181.2648,157.9447c-0.0603,0.0071-0.1183,0.016-0.1749,0.0258
			C181.1485,157.9627,181.2059,157.9516,181.2648,157.9447z"/>
		<path fill="#FF0000" stroke="#FF0000" stroke-miterlimit="10" d="M162.1204,47.591c0.0108-0.1213,0.0241-0.2414,0.0431-0.3588
			C162.1419,47.3657,162.1292,47.4821,162.1204,47.591z"/>
		<path fill="#FF0000" stroke="#FF0000" stroke-miterlimit="10" d="M162.1635,47.2322c-0.019,0.1174-0.0323,0.2375-0.0431,0.3588
			C161.9245,49.999,164.655,46.6245,162.1635,47.2322z"/>
		<path fill="#FF0000" stroke="#FF0000" stroke-miterlimit="10" d="M162.1635,47.2322c2.4915-0.6077-0.239,2.7669-0.0431,0.3588
			c-0.4851,5.4546,7.1909,14.6146,10.7057,6.8443C175.8546,47.7402,166.1116,46.2692,162.1635,47.2322z"/>
		<path fill="#FF0000" stroke="#FF0000" stroke-miterlimit="10" d="M142.8121,10.0823c0.135,7.041,11.8564,2.4465,9.0505-2.0163
			C150.2179,5.4503,142.7378,6.2102,142.8121,10.0823z"/>
		<path fill="#FF0000" stroke="#FF0000" stroke-miterlimit="10" d="M162.397,96.8344c1.8525-0.3255,3.705-0.651,5.5574-0.9765
			C166.2472,94.6493,163.5899,95.1162,162.397,96.8344z"/>
		<path fill="#FF0000" stroke="#FF0000" stroke-miterlimit="10" d="M201.4292,15.6364l0.7396,1.4962
			c0.2509-1.1235,0.5018-2.247,0.7528-3.3705C206.112,13.765,201.4292,12.3644,201.4292,15.6364z"/>
		<path fill="#FF0000" stroke="#FF0000" stroke-miterlimit="10" d="M17.5883,225.6405c0.0199-0.0009,0.0398-0.0019,0.0596-0.0028
			C17.2926,225.3429,17.4036,225.4644,17.5883,225.6405z"/>
		<path fill="#FF0000" stroke="#FF0000" stroke-miterlimit="10" d="M17.648,225.6377c0.1044,0.1039,0.1991,0.2108,0.2896,0.319
			C18.0256,226.0287,17.9959,225.984,17.648,225.6377z"/>
		<path fill="#FF0000" stroke="#FF0000" stroke-miterlimit="10" d="M17.648,225.6377c-0.0199,0.0009-0.0398,0.0019-0.0596,0.0028
			c0.1223,0.1166,0.2762,0.2565,0.3492,0.3162C17.8471,225.8485,17.7524,225.7416,17.648,225.6377z"/>
		<path fill="#FF0000" stroke="#FF0000" stroke-miterlimit="10" d="M17.5883,225.6405c-1.0139,0.0476-2.0279,0.0953-3.0419,0.143
			c0.314,2.3132,0.628,4.6263,0.9419,6.9395c2.9105-0.5636,4.5768-4.2209,2.4492-6.7662
			C17.8645,225.897,17.7106,225.7572,17.5883,225.6405z"/>
		<path fill="#FF0000" stroke="#FF0000" stroke-miterlimit="10" d="M31.7847,137.7451c1.787,0.682,3.0888,0.2933,3.9056-1.1662
			c-0.3386,0.3755-0.4162-0.9415,0,0c-0.4162-0.9415-0.8324-1.8829-1.2486-2.8243
			C32.6384,134.4737,31.7527,135.8039,31.7847,137.7451z"/>
		<path fill="#FF0000" stroke="#FF0000" stroke-miterlimit="10" d="M35.6904,136.5788
			C35.2742,135.6374,35.3517,136.9544,35.6904,136.5788L35.6904,136.5788z"/>
		<path fill="#FF0000" stroke="#FF0000" stroke-miterlimit="10" d="M40.346,97.5289c-0.0952-0.0805-0.192-0.1672-0.2908-0.2613
			C40.14,97.4381,40.2465,97.5105,40.346,97.5289z"/>
		<path fill="#FF0000" stroke="#FF0000" stroke-miterlimit="10" d="M40.346,97.5289c1.47,1.243,2.5067,0.8551,3.1098-1.1649
			c-1.1335,0.3012-2.2671,0.6023-3.4006,0.9035C40.9252,97.0364,40.6745,97.5896,40.346,97.5289z"/>
		<path fill="#FF0000" stroke="#FF0000" stroke-miterlimit="10" d="M40.0552,97.2675c0.0988,0.0941,0.1956,0.1809,0.2908,0.2613
			C40.6745,97.5896,40.9252,97.0364,40.0552,97.2675z"/>
		<path fill="#FF0000" stroke="#FF0000" stroke-miterlimit="10" d="M182.2582,204.6074c-0.041,0.0139-0.0798,0.0299-0.1222,0.0424
			C182.18,204.6368,182.2204,204.6226,182.2582,204.6074z"/>
		<path fill="#FF0000" stroke="#FF0000" stroke-miterlimit="10" d="M182.136,204.6498c0.0424-0.0125,0.0812-0.0285,0.1222-0.0424
			C183.384,204.1557,181.8205,202.8082,182.136,204.6498z"/>
		<path fill="#FF0000" stroke="#FF0000" stroke-miterlimit="10" d="M181.1579,198.9397c0.326,1.9034,0.6521,3.8067,0.9781,5.7101
			c-0.3155-1.8416,1.248-0.4941,0.1222-0.0424C185.3176,203.5707,184.4532,198.7672,181.1579,198.9397z"/>
		<path fill="#FF0000" stroke="#FF0000" stroke-miterlimit="10" d="M164.9003,78.6151l-0.9938-4.4009
			C158.1505,74.3053,158.8224,80.1801,164.9003,78.6151z"/>
		<path fill="#FF0000" stroke="#FF0000" stroke-miterlimit="10" d="M73.3219,91.6766l1.4934-3.8265
			c-1.892,0.1142-3.7839,0.2283-5.6759,0.3425C68.5139,91.4291,69.9081,92.5905,73.3219,91.6766z"/>
	</g>
	<path d="M157.1191,181.1959c-4.8638-1.4058-7.9935,0.8324-10.886,4.7172c-2.8924,3.8848-5.2722,5.1797-1.3874,6.2896
		c3.8848,1.1099,7.9118,2.005,9.4344,0c1.5226-2.005,3.6998-2.9402,5.3647-5.1699
		C161.3096,184.8031,158.1617,181.4972,157.1191,181.1959z"/>
	<path d="M184.1403,60.9155c-0.2377-0.1619-0.4872-0.3113-0.7281-0.4471c-0.2382-0.131-0.4662-0.2404-0.6657-0.331
		c-0.1577-0.1141-0.2813-0.2047-0.3697-0.2572c-1.1454-0.1108-2.3425-0.0968-3.5265-0.0066
		c-0.296,0.0226-0.5911,0.0499-0.8817,0.0812c-0.935-0.2962-1.4899,0.5363-2.3224,0.2588c-0.111,0.555-0.2997,1.0433-0.5465,1.4844
		c-0.1234,0.2206-0.2613,0.4293-0.4114,0.6287c-0.1817,0.2049-0.3647,0.4198-0.5448,0.6431
		c-0.1801,0.2232-0.3574,0.4547-0.5277,0.6926c-1.8544,2.1009,0.3654,4.5982,0.3654,7.0956
		c1.1099-0.8324,2.2198-1.3874,3.3164-1.8378c0.228-0.0243,0.4599-0.0135,0.6984,0.0429c0.4769,0.1127,0.9799,0.4075,1.5348,0.9625
		c0.555,0.2775,0.8325-0.555,1.5173-0.8798c0.1738-0.1588,0.3518-0.32,0.5328-0.4776c0.1584-0.1379,0.3191-0.273,0.4814-0.407
		c0.1623-0.1339,0.3261-0.2667,0.4897-0.4013c0.4318-1.137,1.5495-2.3299,2.2561-3.5465c0.1413-0.2433,0.2662-0.4876,0.3658-0.7325
		C185.8517,62.4127,185.091,61.5633,184.1403,60.9155z"/>
	<path d="M157.0481,55.7963c-0.2377-0.162-0.4872-0.3113-0.7281-0.4471c-0.2382-0.131-0.4662-0.2404-0.6657-0.331
		c-0.1577-0.1141-0.2813-0.2047-0.3697-0.2572c-1.1454-0.1108-2.3425-0.0968-3.5265-0.0066
		c-0.296,0.0226-0.5911,0.0499-0.8817,0.0812c-0.935-0.2962-4.2593-2.3588-5.0918-2.6363c-0.111,0.555-0.2997,1.0433-0.5465,1.4845
		c-0.1234,0.2206-0.2613,0.4293-0.4114,0.6286c-0.1817,0.2049-0.3647,0.4199-0.5448,0.6431
		c-0.1801,0.2232-0.3574,0.4547-0.5277,0.6926c-1.8544,2.1009,3.1348,7.4933,3.1348,9.9906
		c1.1099-0.8324,2.2198-1.3874,3.3164-1.8378c0.228-0.0243,0.4599-0.0135,0.6984,0.0429c0.4769,0.1127,0.9799,0.4076,1.5348,0.9625
		c0.555,0.2775,0.8324-0.555,1.5173-0.8798c0.1738-0.1588,0.3518-0.32,0.5328-0.4776c0.1584-0.1379,0.3191-0.273,0.4814-0.407
		c0.1623-0.134,0.3261-0.2667,0.4897-0.4013c0.4318-1.137,1.5495-2.3299,2.2561-3.5465c0.1413-0.2433,0.2662-0.4876,0.3658-0.7325
		C158.7595,57.2935,157.9988,56.4441,157.0481,55.7963z"/>
	<path d="M207.7417,87.6844c0,0,0,0-3.8848,0.185c-3.8848,0.185-2.4048,0.9249-2.4048,0.9249l1.6649,2.4048c0,0,0,0,2.4048,4.4397
		s0,0,4.8097-0.37c4.8097-0.37,0,0,2.0349-0.0862c2.0349-0.0862-0.9249-3.6135-2.0349-5.0934
		C209.2216,88.6093,207.7417,87.6844,207.7417,87.6844z"/>
	<polygon points="243.0285,119.25 227.0657,124.8981 218.1601,133.7545 207.1193,150.25 197.9285,153.75 189.75,173.075 
		184.1491,180.7735 176.0533,191.25 164.9003,204.6498 157.1191,216.25 147.5539,232.723 143.3412,240.25 143.3412,250 
		163.9208,250 167.9544,238.75 185.907,224.3262 185.907,215.25 198.8897,193.394 209.9501,165.5098 232.475,151.75 
		243.0285,153.75 250,151.4637 250,119.25 	"/>
	<polygon points="221.9215,48.3342 197.9285,34.8286 193.134,17.8964 186.4588,0 170.7837,0 164.9003,20.5896 173.4005,31.7379 
		173.4005,39.7754 188.75,46.965 196.25,56.3489 218.1601,65.0288 243.0285,74.2142 250,66.7747 250,45.4446 	"/>
	<polygon points="29.75,73.2414 39.17,65.0288 43.1543,56.3489 44.6029,31.7379 41.7555,25.0807 34.5294,0 23.879,0 
		35.6904,20.5896 35.6904,35.7321 28.75,48.3342 9.2569,56.3489 0,57.4338 0,78.0698 15.6201,74.2142 	"/>
</g>
</svg>
