<?xml version="1.0" encoding="utf-8"?>
<!-- Generator: Adobe Illustrator 18.0.0, SVG Export Plug-In . SVG Version: 6.00 Build 0)  -->
<!DOCTYPE svg PUBLIC "-//W3C//DTD SVG 1.1//EN" "http://www.w3.org/Graphics/SVG/1.1/DTD/svg11.dtd">
<svg version="1.1" id="Layer_1" xmlns="http://www.w3.org/2000/svg" xmlns:xlink="http://www.w3.org/1999/xlink" x="0px" y="0px"
	 viewBox="0 0 1000 1000" enable-background="new 0 0 1000 1000" xml:space="preserve">
<path fill="#00FF00" d="M867.0764,269.7127c-39.4739,22.2042-62.3753,77.1942-65.4663,120.128
	c-3.5447,49.2392,22.3831,92.0692,0.4665,139.8474c-21.6385,47.1721,15.3853,22.7887,41.2612,7.0756
	c17.7145-10.7571,35.1416-22.0654,53.3639-31.9619c34.4642-18.7175,65.614-6.1635,102.2343-9.4642c0-85.9119,0-171.8238,0-257.7358
	C957.3256,262.0954,906.376,247.6067,867.0764,269.7127C835.1104,287.6935,894.2484,254.4284,867.0764,269.7127z"/>
<path fill="#FF0000" d="M743.6281,304.7196c0-51.4911,125.0185-20.0175,89.9756,13.8997
	c-14.5132,11.0948-10.2415,46.5407-35.5945,33.0155C780.324,342.2002,743.6281,329.4821,743.6281,304.7196z"/>
<path fill="#FF0000" d="M816.5545,800.3746c-6.0748,13.969-15.7463,40.6167,5.5697,47.722c15.7118,0,32.4415-43.4792,38.459-54.9727
	c5.8838-11.2379,24.5373-34.2735-1.1654-38.5573C830.1592,749.6902,824.9671,780.649,816.5545,800.3746
	C810.137,815.1317,817.5966,797.931,816.5545,800.3746z"/>
<path fill="#FF0000" d="M961.0034,65.8928c-9.3613,19.8687-47.1675-2.913-49.9739-16.9449
	C911.0295,28.7285,960.2447,49.8257,961.0034,65.8928C952.9849,82.9117,960.8373,62.375,961.0034,65.8928z"/>
<path fill="#FF0000" d="M972.1142,511.5672c-9.6096-39.6271-66.6681-28.3699-83.9353-1.2358
	C880.239,522.8083,970.8612,538.4203,972.1142,511.5672C967.9689,494.4733,971.9894,514.2408,972.1142,511.5672z"/>
<path fill="#00FF00" d="M628.382,764.7843c-0.2538-2.5697-2.619-4.3854-5.1712-3.9936
	c-43.4705,6.6733-190.5974,75.7494-131.7343,129.2612c30.0218,25.0183-25.42,67.2048-51.9447,53.9426
	c-28.5711-14.2856-4.4134-68.8425,12.8879-82.6662c21.7772-17.4001,32.9376-41.8243,57.108-61.9792
	c37.1449-30.9737,82.456-40.6371,108.1585-80.3117c-37.2346-99.3432-111.2467-110.1909-190.8907-52.9968
	c-63.8281,45.8363-73.2401,98.8972-86.5927,171.6212c-8.2545,44.9575-9.0323,90.4132-2.6283,135.6871
	c4.8982,34.6287,9.6888,25.5871,40.5493,25.5871c52.5956,0,105.191,0,157.7867,0c8.903,0,37.0432-92.4771,43.5701-106.9343
	c19.7259-43.6943,55.1709-89.8862,47.1144-140.0098C623.1594,752.1622,629.2977,774.0537,628.382,764.7843z"/>
<path fill="#FF0000" d="M427.3689,910.9449c14.229-46.8431,63.5294-98.5303,69.5417-18.6874
	C501.5164,953.4211,412.4515,960.9766,427.3689,910.9449C435.536,884.0583,426.3944,914.2136,427.3689,910.9449z"/>
<path fill="#00FF00" d="M374.0571,179.8941c-2.2985,13.9253-5.78,27.5488-10.4445,40.8708
	c48.6348,24.3174,71.3293-53.6463,63.3066-82.8763C415.7718,97.2743,433.1461,22.9288,468.6202,0c-42.1807,0-84.3612,0-126.5419,0
	C338.8133,56.8268,391.0801,126.6647,374.0571,179.8941C369.6063,192.7946,374.7499,177.7277,374.0571,179.8941z"/>
<path fill="#00FF00" d="M543.4211,289.6914c5.5776-92.0306-96.4326-132.6191-152.2794-56.4011
	c-52.9706,55.8587-13.8275,84.5967,40.2163,108.9648c20.8749,9.4124,42.0647,15.4257,50.7367,39.0348
	c10.493,28.5668-24.6563,39.6797-21.7638,61.0582c0.0694,0.5132,101.5407-5.451,105.7883-13.0388
	C583.3748,398.4854,541.2255,325.9201,543.4211,289.6914z"/>
<path fill="#FF0000" d="M427.0664,158.6515c9.2337-41.8323,82.0959-43.3429,70.7782,1.9274
	C488.2265,199.0515,413.0092,204.5058,427.0664,158.6515C432.5392,133.8574,426.1904,161.5091,427.0664,158.6515z"/>
<path fill="#FF0000" d="M380.2768,262.7672c-19.7834,79.8014-79.2477,53.5467-84.4438-13.9966
	c-3.3533-43.5898,22.8348-43.3865,59.7881-38.254C394.8994,215.9717,393.7453,223.1003,380.2768,262.7672
	C373.602,289.6914,381.0909,260.3693,380.2768,262.7672z"/>
<path d="M218.3618,498.7102c7.627,44.9582,88.7626,26.774,117.6565,26.6727c46.4039,3.4274,78.7309,20.6443,125.3647,24.7244
	c54.776,4.7925,122.7437,31.8387,178.392,30.86c47.6127,1.9995,107.3881-4.1044,128.5167-63.6105
	c17.0057-47.8944-19.6713-88.9947-64.0784-89.2192c-24.0794-0.1217-52.5473,7.6363-76.4473,9.26
	c-35.9113,4.4245-71.2234,0.5175-106.7317,4.981c-55.5052,6.9773-95.7126-8.2477-161.8195,12.0829
	C339.9732,460.3793,219.6802,463.9509,218.3618,498.7102C222.8409,525.113,218.4706,495.8408,218.3618,498.7102z"/>
<g id="Layer_2">
	<path fill="#FF0000" d="M32.9649,82.9117c-4.7945,7.1916-12.6654,25.8881-7.0237,34.557
		C30.9078,125.1002,72.9847,76.6925,32.9649,82.9117z"/>
	<path fill="#FF0000" stroke="#FF0000" stroke-width="14" stroke-miterlimit="10" d="M83.5222,703.8304
		c22.6749-11.4666,41.2728-24.1641,67.4248-25.4716c5.8483-0.2924,46.3842,11.7806,24.7404,22.6787
		c-21.2938,10.7219-46.1607,8.0771-68.5036,21.2402C84.2038,735.8165,53.444,719.0409,83.5222,703.8304z"/>
	<path fill="#FF0000" stroke="#FF0000" stroke-miterlimit="10" d="M204.3717,104.4393
		c8.3248-15.1751,22.1163-26.0895,37.8253-32.8539c16.5997,30.1214-6.4605,68.3532-40.8472,67.7213
		C196.6471,127.2145,197.6543,115.5921,204.3717,104.4393C207.1161,99.4367,198.5244,115.0981,204.3717,104.4393z"/>
	<path fill="#FF0000" stroke="#FF0000" stroke-miterlimit="10" d="M166.9383,293.2767c-0.0385,6.3342-0.077,12.6684-0.1155,19.0026
		c0.707-1.0703,23.2159-50.8405,3.546-35.7965"/>
	<path fill="#FF0000" stroke="#FF0000" stroke-miterlimit="10" d="M52.8782,421.0184
		C54.5143,497.9439,95.2576,417.6064,52.8782,421.0184C52.8543,419.8954,61.2609,420.3435,52.8782,421.0184z"/>
	<path fill="#FF0000" stroke="#FF0000" stroke-miterlimit="10" d="M188.445,842.314c-7.6182-11.3398-2.9193-27.1027,9.4581-32.6086
		c20.5349-9.1347,18.4165,19.9062,21.8971,32.8305C209.3485,842.462,198.8967,842.3879,188.445,842.314
		C183.6418,835.1644,198.8967,842.3879,188.445,842.314z"/>
	<path fill="#FF0000" stroke="#FF0000" stroke-miterlimit="10" d="M725.059,631.7786
		c-28.6986,3.3941-48.0412,32.8333-39.7648,60.5214C715.0501,690.227,721.2919,659.0232,725.059,631.7786
		C711.4088,633.393,722.1478,652.8332,725.059,631.7786z"/>
	<path fill="#FF0000" stroke="#FF0000" stroke-miterlimit="10" d="M648.654,188.9286c15.7925-3.8519,54.7645,2.0319,42.6505,28.8123
		C676.9324,249.5135,645.1613,210.5166,648.654,188.9286C659.0708,186.3878,646.6575,201.2689,648.654,188.9286z"/>
	<path fill="#FF0000" stroke="#FF0000" stroke-miterlimit="10" d="M607.4501,32.2642c-6.5786-10.4631-36.4989-7.4235-36.2019,8.065
		C571.7881,68.4933,618.6738,50.1153,607.4501,32.2642z"/>
	<path fill="#FF0000" stroke="#FF0000" stroke-miterlimit="10" d="M671.8177,383.4319c-7.4099,1.3019-14.8199,2.6039-22.2298,3.9059
		C654.3595,380.4648,664.989,378.5972,671.8177,383.4319z"/>
	<path fill="#FF0000" stroke="#FF0000" stroke-miterlimit="10" d="M805.7168,62.5457c0.0001-13.088,18.7313-7.4855,5.9697-7.497
		c-1.0038,4.494-2.0074,8.9879-3.0111,13.4819"/>
	<path fill="#FF0000" stroke="#FF0000" stroke-miterlimit="10" d="M70.5919,902.5509c10.2378,10.188,3.4985,25.991-8.6383,28.3411
		c-1.2559-9.2527-2.5118-18.5052-3.7677-27.7579C62.3212,902.9396,66.4566,902.7452,70.5919,902.5509
		C74.8843,906.8224,67.0956,899.6505,70.5919,902.5509z"/>
	<path fill="#FF0000" stroke="#FF0000" stroke-miterlimit="10" d="M142.7615,546.3153c-1.6648-3.7657-3.3297-7.5316-4.9945-11.2973
		c-7.2134,2.8767-10.7561,8.1974-10.6281,15.9623C134.2868,553.7084,139.4943,552.1534,142.7615,546.3153
		C141.0967,542.5496,141.407,547.8176,142.7615,546.3153z"/>
	<path fill="#FF0000" stroke="#FF0000" stroke-miterlimit="10" d="M160.2207,389.0701c4.5341-1.2047,9.0681-2.4094,13.6023-3.614
		C171.2545,394.0591,166.7204,395.2638,160.2207,389.0701C164.7548,387.8655,161.6809,392.004,160.2207,389.0701z"/>
	<path fill="#FF0000" stroke="#FF0000" stroke-miterlimit="10" d="M728.5439,818.5991c-1.3041-7.6134-2.6083-15.2267-3.9125-22.8401
		C737.9893,795.0597,741.373,814.8126,728.5439,818.5991C727.2398,810.9857,733.965,816.999,728.5439,818.5991z"/>
	<path fill="#FF0000" stroke="#FF0000" stroke-miterlimit="10" d="M659.6014,314.4603
		c-24.3118,6.2602-26.9996-17.2392-3.9753-17.6036"/>
	<path fill="#FF0000" stroke="#FF0000" stroke-miterlimit="10" d="M299.2612,351.4004c-7.5678,0.4566-15.1357,0.9132-22.7036,1.3699
		c-2.502,12.9463,3.0747,17.5916,16.7302,13.9361"/>
</g>
<path d="M628.4763,724.7835c-19.4554-5.6232-31.9742,3.3295-43.5438,18.8688c-11.5697,15.5393-21.0887,20.7187-5.5497,25.1584
	c15.539,4.4398,31.6473,8.02,37.7376,0c6.0903-8.02,14.799-11.7609,21.4586-20.6794
	C645.2386,739.2126,632.6469,725.989,628.4763,724.7835z"/>
<path d="M729.5071,239.521c-4.5817-0.4431-9.3699-0.3872-14.106-0.0263c-1.184,0.0902-2.3646,0.1995-3.5266,0.3248
	c-3.7399-1.1847-5.9598,2.1451-9.2896,1.0351c-0.444,2.2199-1.1987,4.1733-2.1859,5.9378
	c-0.4937,0.8822-1.0453,1.7172-1.6454,2.5146c-0.7268,0.8197-1.4586,1.6794-2.1791,2.5723
	c-0.7204,0.8928-1.4295,1.8187-2.1109,2.7704c-7.4177,8.4035,1.4618,18.3928,1.4618,28.3822
	c4.4397-3.3298,8.8794-5.5497,13.2656-7.3514c0.912-0.0973,1.8398-0.0539,2.7936,0.1715c1.9077,0.4509,3.9194,1.6302,6.1393,3.8501
	c2.2199,1.1099,3.3298-2.2198,6.0694-3.5191c0.6951-0.6351,1.407-1.2799,2.1312-1.9102c0.6336-0.5516,1.2766-1.0921,1.9257-1.6279
	c0.6491-0.5358,1.3044-1.067,1.9587-1.6053c1.7271-4.5481,6.1978-9.3195,9.0244-14.1859c0.5653-0.9733,1.0648-1.9503,1.463-2.9301
	c2.7106-4.2729-0.3322-7.6704-4.1349-10.2616c-0.9507-0.6478-1.9488-1.2452-2.9124-1.7882
	c-0.9529-0.5241-1.8647-0.9617-2.663-1.3239C730.3552,240.0934,729.8607,239.731,729.5071,239.521z"/>
<path d="M621.1384,219.0443c-4.5817-0.4431-9.3699-0.3872-14.106-0.0263c-1.184,0.0902-2.3646,0.1995-3.5266,0.3248
	c-3.7399-1.1847-17.0374-9.4353-20.3672-10.5453c-0.444,2.2199-1.1987,4.1733-2.1859,5.9378
	c-0.4937,0.8822-1.0453,1.7172-1.6454,2.5146c-0.7268,0.8197-1.4586,1.6794-2.179,2.5723c-0.7205,0.8928-1.4296,1.8187-2.111,2.7704
	c-7.4177,8.4035,12.5394,29.9732,12.5394,39.9626c4.4397-3.3298,8.8794-5.5497,13.2656-7.3514
	c0.912-0.0973,1.8398-0.0539,2.7936,0.1715c1.9077,0.4509,3.9194,1.6302,6.1393,3.8501c2.2198,1.11,3.3298-2.2198,6.0694-3.5191
	c0.6951-0.6351,1.407-1.2799,2.1312-1.9102c0.6336-0.5516,1.2766-1.0921,1.9257-1.6279c0.6491-0.5358,1.3044-1.0669,1.9587-1.6053
	c1.7271-4.5481,6.1978-9.3196,9.0244-14.1859c0.5653-0.9733,1.0648-1.9503,1.463-2.9301c2.7106-4.2729-0.3322-7.6704-4.1349-10.2616
	c-0.9507-0.6478-1.9489-1.2451-2.9124-1.7882c-0.9529-0.5241-1.8647-0.9617-2.663-1.3239
	C621.9865,219.6168,621.492,219.2544,621.1384,219.0443z"/>
<path d="M805.8083,355.1772c0,0-5.9196-2.9598,9.6194-3.6998c15.539-0.7399,15.539-0.7399,15.539-0.7399
	s5.9196,3.6998,10.3594,9.6194c4.4397,5.9196,16.2789,20.0288,8.1395,20.3737c-8.1395,0.3449,11.0993-1.1349-8.1395,0.3449
	c-19.2388,1.4799-9.6194,19.2388-19.2388,1.4799c-9.6194-17.7589-9.6194-17.7589-9.6194-17.7589L805.8083,355.1772z"/>
<polygon points="649.588,1017 671.8177,955 743.6281,897.3049 743.6281,861 795.5587,773.5759 839.8002,662.0393 929.9001,607 
	972.1142,615 1027,597 1027,477 972.1142,477 908.2629,499.5925 872.6403,535.018 828.4772,601 791.7142,615 759,692.3 
	736.5963,723.0941 704.2134,765 659.6014,818.5991 628.4763,865 590.2155,930.892 573.3647,961 573.3647,1017 "/>
<polygon points="741.7321,-11 772.5361,71.5854 791.7142,139.3145 887.6861,193.3368 1027,179 1005.6036,261.119 972.1142,296.8568 
	872.6403,260.115 785,225.3954 755,187.86 693.6022,159.1015 693.6022,126.9515 659.6014,82.3582 683.3677,-0.815 "/>
<polygon points="134.9486,-11 167.0219,100.3227 178.4114,126.9515 172.6172,225.3954 156.68,260.115 119,292.9657 
	62.4802,296.8568 0,312.2793 0,229.7351 37.0277,225.3954 115,193.3368 142.7615,142.9284 142.7615,82.3582 89.2057,-11 "/>
</svg>
